# xmcd
#
# Track frame offsets: 
#        150
#        17810
#        31385
#        49132
#        84114
#        99936
#        107374
#
# Disc length: 1854 seconds
#
# Revision: 0
# Processed by: cddbd v1.5.2PL0 Copyright (c) Steve Scherf et al.
# Submitted via: ExactAudioCopy v1.0b3
#
DISCID=42073c07
DTITLE=JAGUAR - お母さん！
DYEAR=2016
DGENRE=
TTITLE0=スマイル・ウィズ・ユゥ！
TTITLE1=北海道のＪＡＧＵＡＲ！
TTITLE2=お母さん！
TTITLE3=KENとJAGUAR
TTITLE4=エターナルセイバー
TTITLE5=ザ☆ピーナッツ
TTITLE6=Like a Rolling Stone
EXTD=
EXTT0=
EXTT1=
EXTT2=
EXTT3=
EXTT4=
EXTT5=
EXTT6=
PLAYORDER=
